REM DIRINDEX 1\2,1\3
REM DIRNAME folder01,folder02,folder03
TITLE ""
FILE "DaigakuNyushi150-13.mp3" MP3
  TRACK 01 AUDIO
    TITLE "3:cjc122_281"
    INDEX 01 00:00:00
  TRACK 02 AUDIO
    TITLE "0:"
    INDEX 01 00:02:04
  TRACK 03 AUDIO
    TITLE "2:cjc122_282"
    INDEX 01 00:02:32
  TRACK 04 AUDIO
    TITLE "0:"
    INDEX 01 00:05:16
  TRACK 05 AUDIO
    TITLE "2:cjc122_283"
    INDEX 01 00:05:46
  TRACK 06 AUDIO
    TITLE "0:"
    INDEX 01 00:09:02
  TRACK 07 AUDIO
    TITLE "3:cjc122_284"
    INDEX 01 00:09:30
  TRACK 08 AUDIO
    TITLE "0:"
    INDEX 01 00:11:42
  TRACK 09 AUDIO
    TITLE "2:cjc122_285"
    INDEX 01 00:11:72
  TRACK 10 AUDIO
    TITLE "0:"
    INDEX 01 00:16:18
  TRACK 11 AUDIO
    TITLE "2:cjc122_286"
    INDEX 01 00:16:46
  TRACK 12 AUDIO
    TITLE "0:"
    INDEX 01 00:21:02
  TRACK 13 AUDIO
    TITLE "3:cjc122_287"
    INDEX 01 00:21:33
  TRACK 14 AUDIO
    TITLE "0:"
    INDEX 01 00:23:55
  TRACK 15 AUDIO
    TITLE "2:cjc122_288"
    INDEX 01 00:24:10
  TRACK 16 AUDIO
    TITLE "0:"
    INDEX 01 00:28:33
  TRACK 17 AUDIO
    TITLE "2:cjc122_289"
    INDEX 01 00:28:62
  TRACK 18 AUDIO
    TITLE "0:"
    INDEX 01 00:33:15
  TRACK 19 AUDIO
    TITLE "2:cjc122_290"
    INDEX 01 00:33:44
  TRACK 20 AUDIO
    TITLE "0:"
    INDEX 01 00:38:10
  TRACK 21 AUDIO
    TITLE "2:cjc122_291"
    INDEX 01 00:38:45
  TRACK 22 AUDIO
    TITLE "0:"
    INDEX 01 00:42:47
  TRACK 23 AUDIO
    TITLE "3:cjc122_292"
    INDEX 01 00:42:74
  TRACK 24 AUDIO
    TITLE "0:"
    INDEX 01 00:45:22
  TRACK 25 AUDIO
    TITLE "2:cjc122_293"
    INDEX 01 00:45:47
  TRACK 26 AUDIO
    TITLE "0:"
    INDEX 01 00:51:32
  TRACK 27 AUDIO
    TITLE "2:cjc122_294"
    INDEX 01 00:51:63
  TRACK 28 AUDIO
    TITLE "0:"
    INDEX 01 00:57:29
  TRACK 29 AUDIO
    TITLE "2:cjc122_295"
    INDEX 01 00:57:60
  TRACK 30 AUDIO
    TITLE "0:"
    INDEX 01 01:03:08
  TRACK 31 AUDIO
    TITLE "2:cjc122_296"
    INDEX 01 01:03:39
  TRACK 32 AUDIO
    TITLE "0:"
    INDEX 01 01:08:29
  TRACK 33 AUDIO
    TITLE "2:cjc122_297"
    INDEX 01 01:08:56
  TRACK 34 AUDIO
    TITLE "0:"
    INDEX 01 01:14:35
  TRACK 35 AUDIO
    TITLE "2:cjc122_298"
    INDEX 01 01:14:63
  TRACK 36 AUDIO
    TITLE "0:"
    INDEX 01 01:20:02
  TRACK 37 AUDIO
    TITLE "3:cjc122_299"
    INDEX 01 01:20:36
  TRACK 38 AUDIO
    TITLE "0:"
    INDEX 01 01:22:52
  TRACK 39 AUDIO
    TITLE "2:cjc122_300"
    INDEX 01 01:23:11
  TRACK 40 AUDIO
    TITLE "0:"
    INDEX 01 01:26:68
  TRACK 41 AUDIO
    TITLE "3:cjc122_301"
    INDEX 01 01:27:26
  TRACK 42 AUDIO
    TITLE "0:"
    INDEX 01 01:29:45
  TRACK 43 AUDIO
    TITLE "2:cjc122_302"
    INDEX 01 01:29:70
  TRACK 44 AUDIO
    TITLE "0:"
    INDEX 01 01:33:64
  TRACK 45 AUDIO
    TITLE "3:cjc122_303"
    INDEX 01 01:34:20
  TRACK 46 AUDIO
    TITLE "0:"
    INDEX 01 01:36:35
  TRACK 47 AUDIO
    TITLE "2:cjc122_304"
    INDEX 01 01:36:58
  TRACK 48 AUDIO
    TITLE "0:"
    INDEX 01 01:41:50
  TRACK 49 AUDIO
    TITLE "3:cjc122_305"
    INDEX 01 01:42:10
  TRACK 50 AUDIO
    TITLE "0:"
    INDEX 01 01:44:17
  TRACK 51 AUDIO
    TITLE "2:cjc122_306"
    INDEX 01 01:44:44
  TRACK 52 AUDIO
    TITLE "0:"
    INDEX 01 01:48:32
  TRACK 53 AUDIO
    TITLE "3:cjc122_307"
    INDEX 01 01:48:60
  TRACK 54 AUDIO
    TITLE "0:"
    INDEX 01 01:50:74
  TRACK 55 AUDIO
    TITLE "2:cjc122_308"
    INDEX 01 01:51:32
  TRACK 56 AUDIO
    TITLE "0:"
    INDEX 01 01:55:13
  TRACK 57 AUDIO
    TITLE "3:cjc122_309"
    INDEX 01 01:55:42
  TRACK 58 AUDIO
    TITLE "0:"
    INDEX 01 01:57:39
  TRACK 59 AUDIO
    TITLE "2:cjc122_310"
    INDEX 01 01:57:68
  TRACK 60 AUDIO
    TITLE "0:"
    INDEX 01 02:02:52
